Coordinates
version=1
nRows=15
nColumns=19
inDegrees=yes

Units are S.I. units (second, meters, Newtons, ...)
If the header above contains a line with 'inDegrees', this indicates whether rotational values are in degrees (yes) or radians (no).

endheader
time	pelvis_tilt	pelvis_list	pelvis_rotation	pelvis_tx	pelvis_ty	pelvis_tz	hip_flexion_r	hip_adduction_r	hip_rotation_r	knee_angle_r	knee_angle_r_beta	ankle_angle_r	hip_flexion_l	hip_adduction_l	hip_rotation_l	knee_angle_l	knee_angle_l_beta	ankle_angle_l
     12.07333333	     -1.99825364	     -8.46517784	     -6.63868862	      2.37477584	      0.94307729	      1.04357392	     29.94247833	     12.52043626	    -10.09247403	     25.08662262	      0.43784416	      3.13703693	    -19.76335283	     -8.88367793	    -13.99439405	     61.85842243	      1.07963314	    -17.25371191
     12.08000000	     -0.95179365	     -9.30824993	     -6.75187999	      2.37406874	      0.93996075	      1.04452904	     27.93530834	     13.50452735	    -11.48085465	     24.84023369	      0.43354386	      3.19925618	    -19.67295136	    -10.57110722	    -14.70190378	     66.29207887	      1.15701504	    -16.22942570
     12.08666667	     -0.35045469	     -9.88078703	     -6.91240584	      2.37291127	      0.93624291	      1.04520488	     26.70244684	     14.07191967	    -12.89096739	     25.66753334	      0.44798297	      3.71941277	    -18.81291167	    -11.85085399	    -14.81903407	     70.78197391	      1.23537850	    -14.92426592
     12.09333333	      0.26677082	    -10.38193342	     -7.15994223	      2.37157552	      0.93260401	      1.04547792	     25.58084369	     14.44490388	    -14.04414869	     27.29355361	      0.47636238	      4.79100903	    -17.84342013	    -12.88350958	    -14.73211130	     75.07844353	      1.31036604	    -13.56817616
     12.10000000	      0.46168562	    -10.67098988	     -7.22112398	      2.37008306	      0.92877583	      1.04524520	     25.01287920	     14.44059491	    -15.08363386	     29.48205029	      0.51455885	      6.21738206	    -16.05324262	    -13.71778757	    -14.05067773	     79.33316404	      1.38462492	    -12.32668248
     12.10666667	      1.04319900	    -10.97225912	     -7.57705437	      2.36837640	      0.92534521	      1.04473069	     24.05005540	     14.47490827	    -15.32228950	     32.19671527	      0.56193869	      8.14993362	    -14.72353431	    -14.33810719	    -13.67674823	     83.21602497	      1.45239363	    -11.10859645
     12.11333333	      0.56183242	    -10.53396616	     -7.87096770	      2.36634830	      0.92119018	      1.04384919	     24.38075805	     13.78938177	    -15.09610733	     35.32470325	      0.61653238	     10.29134591	    -11.68191650	    -14.16517441	    -12.52412358	     87.08064366	      1.51984395	    -10.00975807
     12.12000000	      0.49837671	    -10.10172910	     -8.16181763	      2.36422258	      0.91772989	      1.04279541	     24.10686232	     13.17378899	    -14.26653431	     38.35302276	      0.66938653	     12.66819297	     -9.05060247	    -14.04568662	    -11.64721841	     90.55744179	      1.58052552	     -9.09894685
     12.12666667	      0.32284419	     -9.54131942	     -8.43947639	      2.36191428	      0.91451712	      1.04167231	     23.82149254	     12.53734695	    -13.02801697	     41.18996587	      0.71890052	     15.07673632	     -6.13449895	    -13.83470082	    -10.75275213	     93.74099365	      1.63608898	     -8.19300329
     12.13333333	      0.14906182	     -8.87830369	     -8.61164878	      2.35946283	      0.91177527	      1.04053207	     23.34849780	     11.84267145	    -11.63366317	     43.68437043	      0.76243610	     17.42918449	     -3.05980027	    -13.60466000	     -9.83971845	     96.57395571	      1.68553350	     -7.40457811
     12.14000000	     -0.03428206	     -8.20749262	     -8.66822033	      2.35700365	      0.90956301	      1.03944739	     22.62338083	     11.16687937	    -10.24049863	     45.68087468	      0.79728167	     19.63268600	      0.13319712	    -13.46838954	     -8.92414636	     99.02988226	      1.72839750	     -6.62665801
     12.14666667	     -0.04420870	     -7.57016564	     -8.53945511	      2.35463753	      0.90815405	      1.03838591	     21.41721515	     10.44714654	     -9.07660450	     47.11991707	      0.82239770	     21.62984145	      3.21876147	    -13.42628471	     -7.97301073	    101.04180002	      1.76351209	     -5.92508767
     12.15333333	      0.19118796	     -6.98874552	     -8.24772906	      2.35248468	      0.90763317	      1.03736820	     19.63246140	      9.67637236	     -8.20766519	     47.97599813	      0.83733913	     23.34499651	      6.05730503	    -13.44893091	     -7.01608075	    102.56572119	      1.79010953	     -5.27507334
     12.16000000	      0.61410006	     -6.54670978	     -8.15155482	      2.35048526	      0.90790801	      1.03693516	     17.32638395	      9.14201014	     -7.18940471	     48.25192689	      0.84215499	     24.65055096	      8.52693909	    -13.76107090	     -6.46451810	    103.58554858	      1.80790888	     -4.65754036
     12.16666667	      0.87614973	     -5.88667619	     -7.79500679	      2.34914552	      0.90870920	      1.03641626	     14.92362283	      8.23938539	     -6.69311899	     47.99210371	      0.83762022	     25.85644509	     11.19990403	    -13.80071148	     -5.80083610	    104.09358041	      1.81677571	     -3.99019441
